PathFileType	4	(X/Y/Z)	./resultDataOpenSim/trcMotMarkerGrf/sub09/qtm-05-07.trc
DataRate	CameraRate	NumFrames	NumMarkers	Units	OrigDataRate	OrigDataStartFrame	OrigNumFrames
250.000000	250.000000	14	24	m	250.000000	449	513
Frame#	Time	L.Toe.Tip			R.Toe.Tip			L.Ankle.Lat			R.Ankle.Lat			L.Ankle.Med			R.Ankle.Med			L.Heel			R.Heel			L.Knee.Lat			R.Knee.Lat			L.Knee.Med			R.Knee.Med			L.Thigh.Upper			R.Thigh.Upper			L.ASIS			R.ASIS			V.Sacral			L.Acromium			R.Acromium			C7			L.Elbow			R.Elbow			L.Wrist.Lat			R.Wrist.Lat
		X1	Y1	Z1	X2	Y2	Z2	X3	Y3	Z3	X4	Y4	Z4	X5	Y5	Z5	X6	Y6	Z6	X7	Y7	Z7	X8	Y8	Z8	X9	Y9	Z9	X10	Y10	Z10	X11	Y11	Z11	X12	Y12	Z12	X13	Y13	Z13	X14	Y14	Z14	X15	Y15	Z15	X16	Y16	Z16	X17	Y17	Z17	X18	Y18	Z18	X19	Y19	Z19	X20	Y20	Z20	X21	Y21	Z21	X22	Y22	Z22	X23	Y23	Z23	X24	Y24	Z24

449	1.792	1.6913704	0.11428005	0.045764086	1.0269611	0.039361453	0.16348129	1.5342945	0.093379204	0.021160881	0.88652487	0.088323081	0.19070258	1.5596177	0.12014475	0.11265516	0.92170052	0.12480584	0.10403092	1.4893549	0.034850584	0.073793519	0.81931342	0.087874803	0.13568708	1.3951029	0.48435874	-0.018184881	1.1126831	0.49154492	0.26518236	1.3963882	0.47841994	0.10932997	1.1058543	0.48331002	0.13801231	1.2270304	0.86551131	-0.056356186	1.1711497	0.89111837	0.31205704	1.2932719	0.95888471	0.0074225818	1.2838553	0.97038921	0.24814327	1.1183361	1.0131992	0.10926432	1.2604241	1.4160343	-0.051698582	1.2495765	1.4316941	0.27902325	1.1867445	1.470872	0.11270375	1.1075825	1.0790976	-0.1105436	1.1348234	1.0786128	0.37703614	1.2360222	0.8521988	-0.157043	1.3445756	0.89497397	0.36301779
450	1.796	1.6965228	0.11328333	0.046385406	1.0270936	0.039414777	0.16360455	1.539426	0.092154349	0.0219069	0.8872687	0.089544109	0.19125074	1.5647711	0.11914432	0.11325341	0.92258914	0.12579229	0.10455612	1.4945938	0.033582772	0.074702346	0.81993842	0.089745737	0.13633062	1.4005841	0.48349383	-0.018069155	1.1171932	0.49080676	0.26534616	1.4020977	0.47774621	0.10928625	1.1098132	0.48262438	0.13793967	1.2333777	0.86426554	-0.056663561	1.179411	0.88989679	0.31132936	1.2990608	0.95777157	0.0069438625	1.2897652	0.96927626	0.24779625	1.1241365	1.0120093	0.10868537	1.2654981	1.4150235	-0.051999764	1.2542394	1.4306208	0.2787784	1.1915589	1.4697535	0.11234566	1.1130327	1.0778959	-0.11100359	1.1395571	1.077403	0.37631525	1.2415964	0.85102637	-0.15722717	1.3491146	0.8935016	0.36317831
451	1.8	1.7010651	0.11169199	0.047095671	1.0272593	0.039507807	0.16370995	1.5439028	0.090727977	0.022723982	0.88811406	0.090848797	0.19184077	1.5693544	0.11789048	0.1139376	0.92354175	0.12682721	0.10512165	1.4990478	0.032232855	0.075734367	0.82062327	0.091708467	0.1370223	1.4062839	0.4827653	-0.01795658	1.1218641	0.49008506	0.26553505	1.4081756	0.4772036	0.10919204	1.1138395	0.48188978	0.13781324	1.2396359	0.86310669	-0.057031847	1.1870818	0.88868869	0.31066661	1.3048759	0.95669255	0.0064287696	1.2956934	0.96813729	0.24741295	1.1299579	1.0108229	0.10819553	1.2705794	1.4140114	-0.052307773	1.2589486	1.4295286	0.27851945	1.1963886	1.4686394	0.11198723	1.118528	1.0766783	-0.11146856	1.1443371	1.0762186	0.37561449	1.247203	0.84984209	-0.15740426	1.3536048	0.89201174	0.36334195
452	1.804	1.7050456	0.10950203	0.047918566	1.0274638	0.039649176	0.16379209	1.5478042	0.089110963	0.023550206	0.88907832	0.092257005	0.19248037	1.5733871	0.116381	0.11467751	0.92455965	0.12791235	0.10572508	1.502731	0.030823956	0.076797884	0.82138339	0.09377511	0.13776308	1.4121925	0.48214075	-0.01789378	1.1266781	0.4893421	0.26572365	1.4145743	0.47679117	0.10907807	1.1181813	0.48105142	0.13779604	1.2457592	0.86206734	-0.057464801	1.1937589	0.88752419	0.31009591	1.3107301	0.95566315	0.0058825958	1.3016335	0.96697919	0.24697888	1.1357969	1.0096908	0.1077061	1.2756671	1.4130046	-0.052626157	1.2637043	1.4284184	0.27824896	1.2012365	1.4675375	0.11162088	1.1240826	1.0754557	-0.1119198	1.1491417	1.0750554	0.37491999	1.2528361	0.84865076	-0.15757011	1.3580575	0.89051239	0.3635007
453	1.808	1.7085116	0.10670848	0.048905049	1.0277005	0.039821568	0.16388503	1.5512155	0.087306728	0.024335062	0.89013758	0.093764023	0.19316711	1.5768753	0.11460669	0.1154521	0.92564609	0.129054	0.10636067	1.5056551	0.0294156	0.077788284	0.8222299	0.095956772	0.13854234	1.4182987	0.48156499	-0.017899631	1.1316074	0.48853503	0.26589282	1.4211932	0.47648573	0.10896666	1.123146	0.48008701	0.13808843	1.2517166	0.86117098	-0.057973452	1.1998454	0.88640469	0.30957586	1.3166347	0.95469453	0.0053088277	1.3075975	0.96580962	0.24649435	1.1416608	1.0086203	0.10717832	1.2807608	1.4120113	-0.05296287	1.2684987	1.4273029	0.27797065	1.206112	1.4664477	0.11122875	1.1296879	1.0742271	-0.11237257	1.1539536	1.0739091	0.37421647	1.2584821	0.84746164	-0.15771981	1.3624807	0.88900249	0.36365754
454	1.812	1.7115036	0.10332727	0.050128482	1.027948	0.039984513	0.1640366	1.5541783	0.085335065	0.025072289	0.89123749	0.095345741	0.19387996	1.579819	0.112554	0.1162609	0.92681899	0.13026151	0.10702392	1.507829	0.028089823	0.078611504	0.82316836	0.098262301	0.13934285	1.4245876	0.48098384	-0.017939806	1.1366459	0.48765341	0.26605899	1.4279169	0.47625386	0.10886442	1.1287309	0.47902064	0.13867211	1.2575021	0.86042454	-0.058565992	1.2058017	0.88531852	0.30906547	1.32259	0.95379222	0.004704464	1.3136008	0.96463475	0.24597537	1.1475632	1.0075643	0.10664899	1.2858592	1.4110372	-0.053322255	1.2733288	1.4261939	0.27768306	1.2110293	1.4653517	0.11079171	1.1353324	1.0729934	-0.11283206	1.158768	1.0727813	0.37350037	1.2641365	0.846283	-0.15785332	1.3668715	0.88747776	0.36382009
455	1.816	1.7140765	0.099438401	0.051643415	1.0281921	0.040115978	0.16424705	1.5567206	0.083254909	0.025802649	0.89235494	0.096983782	0.19460298	1.5822514	0.11025352	0.11712818	0.92810388	0.13154306	0.10770941	1.5093096	0.026908423	0.079239419	0.82420741	0.10070177	0.14014786	1.4310232	0.48035781	-0.017972116	1.1418489	0.4867159	0.26628172	1.4346561	0.47606251	0.10876342	1.13457	0.4778905	0.1392934	1.2631242	0.8598172	-0.059240967	1.211822	0.88423167	0.30854832	1.3285869	0.9529566	0.0040661708	1.3196498	0.96345943	0.24543757	1.1535098	1.0064842	0.10616567	1.2909612	1.4100851	-0.053701495	1.2781919	1.4250967	0.27738349	1.2159835	1.4642346	0.11030583	1.1410157	1.071764	-0.11328383	1.1635929	1.0716763	0.37277896	1.2698146	0.84511364	-0.15797568	1.3712239	0.88593965	0.36399262
456	1.82	1.7163396	0.095135635	0.053414878	1.0284379	0.040232254	0.16445406	1.5589566	0.08117892	0.026569865	0.89353111	0.09866886	0.19535599	1.5843114	0.10784629	0.11807853	0.9295224	0.13290236	0.10840995	1.5102719	0.025933364	0.079730657	0.82536489	0.10328573	0.14093795	1.4375205	0.47966227	-0.018005413	1.1473376	0.48573953	0.26663392	1.441357	0.47587229	0.10864396	1.1403676	0.47671849	0.13977218	1.2686016	0.85932559	-0.059988584	1.2179337	0.88310142	0.30801741	1.3346062	0.95218772	0.0033991441	1.3257385	0.96228898	0.24488245	1.15949	1.0053889	0.10575208	1.2960652	1.4091548	-0.054094334	1.2830826	1.4240094	0.27707134	1.2209457	1.4631087	0.10979765	1.1467425	1.0705488	-0.1137195	1.1684412	1.0705967	0.37205886	1.2755396	0.84394518	-0.15809203	1.3755367	0.88439237	0.36417351
457	1.824	1.7184952	0.09043426	0.0553042	1.028698	0.040364706	0.16458839	1.5611101	0.079282869	0.027371094	0.89483643	0.10040187	0.19617974	1.5862808	0.10557304	0.11908408	0.93109037	0.13433779	0.10912064	1.5109921	0.025321902	0.080175731	0.82665975	0.10602187	0.14169329	1.443932	0.47889313	-0.018091208	1.1532349	0.48471134	0.26713976	1.4479929	0.47563969	0.10848572	1.1461456	0.47551763	0.14015098	1.2739694	0.8589207	-0.060793088	1.2241249	0.88190959	0.30746373	1.3406151	0.95149426	0.0027216289	1.3318544	0.96112838	0.24430315	1.1654794	1.0043222	0.10541706	1.3011695	1.4082469	-0.05449591	1.2879958	1.422932	0.27674305	1.2258907	1.4619935	0.10928961	1.1525189	1.0693507	-0.11413366	1.1733205	1.0695425	0.37133639	1.28132	0.8427749	-0.15820397	1.3798134	0.8828394	0.36435996
458	1.828	1.7208225	0.085329304	0.05715066	1.0289806	0.040529341	0.16464848	1.5634141	0.077757545	0.028135282	0.89632064	0.10221649	0.19708204	1.5884886	0.10364408	0.12003815	0.93281602	0.13584547	0.10984252	1.511736	0.02531272	0.080615444	0.82810357	0.10891527	0.14241026	1.4501172	0.47808323	-0.018262733	1.1595621	0.483598	0.26773778	1.4545479	0.47533869	0.10828616	1.152037	0.4742881	0.14052751	1.279278	0.8585741	-0.06163452	1.2303958	0.88067209	0.30687939	1.3465752	0.95090022	0.0020577362	1.3379905	0.95998017	0.24369846	1.1714389	1.003335	0.10514471	1.3062731	1.407368	-0.054905684	1.292932	1.4218736	0.27639445	1.2308267	1.4609118	0.10878154	1.158351	1.0681665	-0.11451913	1.1782176	1.0685078	0.37059322	1.2871449	0.8416097	-0.1583117	1.3840567	0.88128402	0.36455425
459	1.832	1.7235253	0.079988207	0.058832128	1.0292901	0.040717334	0.16470436	1.5659909	0.076691952	0.028749208	0.89797955	0.10416946	0.19801995	1.5911146	0.10210792	0.1208053	0.93469575	0.13742594	0.11058271	1.5126564	0.026022524	0.080989353	0.82970379	0.11197246	0.14310982	1.4560502	0.47731402	-0.018505222	1.1661647	0.48238568	0.26831651	1.4610014	0.47498589	0.1080641	1.1580521	0.47300682	0.1408941	1.2845802	0.858262	-0.062493058	1.2367309	0.87941546	0.30626376	1.3524547	0.95043561	0.0014156395	1.3441486	0.95884434	0.24307381	1.1773235	1.0024612	0.10488295	1.3113763	1.4065283	-0.05532789	1.2978929	1.420846	0.27603187	1.2357801	1.4599189	0.10828865	1.1642369	1.0669931	-0.11488086	1.1830825	1.0674806	0.36979682	1.2930024	0.84045799	-0.15841699	1.3882655	0.87972839	0.36476195
460	1.836	1.7265338	0.074819575	0.06026186	1.0296329	0.040907836	0.16482301	1.5688159	0.076004019	0.029126333	0.89973957	0.10628777	0.19893949	1.5940812	0.10087168	0.121305	0.93672179	0.139089	0.11135033	1.513779	0.027290769	0.081155176	0.83147099	0.11520526	0.14382664	1.4618544	0.47671223	-0.018787368	1.1727849	0.48110993	0.26879254	1.467325	0.47465805	0.10784139	1.1641189	0.47165077	0.14117161	1.2899245	0.85797027	-0.06335383	1.2430666	0.87815106	0.30562171	1.3582389	0.95011479	0.00078157138	1.3503221	0.95772229	0.24243115	1.1831048	1.0017103	0.1045833	1.3164782	1.4057365	-0.055767237	1.3028728	1.4198617	0.27567283	1.240769	1.4590739	0.107829	1.1701677	1.0658302	-0.11523591	1.1878384	1.0664529	0.36891334	1.2988912	0.83932446	-0.1585216	1.3924341	0.87817339	0.364985
461	1.84	1.729524	0.070240314	0.061415023	1.0300114	0.041082741	0.16503302	1.5717675	0.075514071	0.029259956	0.90147691	0.10855069	0.19980762	1.5971492	0.099833407	0.12154552	0.93889492	0.14085175	0.1121513	1.5150518	0.028775089	0.080996886	0.8334226	0.11863021	0.14459088	1.4677336	0.47642397	-0.019102158	1.1792936	0.47985345	0.26916686	1.4734978	0.47448642	0.10762059	1.1703559	0.47020045	0.14138	1.2953543	0.85770551	-0.064205166	1.249354	0.8768749	0.30496332	1.3639324	0.94993089	0.00013977841	1.3564848	0.95662392	0.2417672	1.1887836	1.0010782	0.10425402	1.3215759	1.405001	-0.056223847	1.3078636	1.418937	0.27533147	1.2458017	1.4583879	0.10737915	1.1761373	1.0646819	-0.11559275	1.1924489	1.0654376	0.36793989	1.3048168	0.83821318	-0.1586231	1.3965558	0.87661979	0.36521963
462	1.844	1.7321876	0.066332589	0.062378324	1.0304159	0.041235217	0.16534672	1.5746965	0.075085641	0.029207188	0.9031021	0.11092957	0.20061883	1.6000841	0.098949048	0.12159639	0.94122906	0.14272945	0.11298611	1.5163965	0.030167737	0.080534384	0.83558275	0.12226281	0.14541248	1.4738643	0.47656433	-0.019468111	1.1858161	0.47869461	0.26950559	1.4795376	0.47461563	0.10737492	1.1771374	0.46862639	0.14169591	1.3009024	0.85750125	-0.065032344	1.2556402	0.87558025	0.30430702	1.3695554	0.94987164	-0.00051685401	1.3626111	0.95556794	0.24108266	1.1943793	1.0005506	0.10394829	1.3266677	1.404335	-0.056695658	1.3128658	1.4180872	0.2750061	1.2508823	1.4578418	0.10690453	1.1821499	1.0635598	-0.11593904	1.1969994	1.0644774	0.36693111	1.3107819	0.83713233	-0.15871424	1.4006314	0.87506788	0.36545881
